<mxfile host="app.diagrams.net" modified="2023-03-17T06:38:08.172Z" agent="5.0 (Windows NT 10.0; Win64; x64) AppleWebKit/537.36 (KHTML, like Gecko) Chrome/108.0.0.0 Safari/537.36" etag="bISbkkkX1YjYZwFbQYWN" version="21.0.6" type="github">
  <diagram name="Halaman-1" id="_QRMbwF6j5q09ZdCHV_I">
    <mxGraphModel dx="1222" dy="648" grid="1" gridSize="10" guides="1" tooltips="1" connect="1" arrows="1" fold="1" page="1" pageScale="1" pageWidth="850" pageHeight="1100" math="0" shadow="0">
      <root>
        <mxCell id="0" />
        <mxCell id="1" parent="0" />
        <mxCell id="j2x3N7LSNfkqkWNasANX-8" style="edgeStyle=orthogonalEdgeStyle;rounded=0;orthogonalLoop=1;jettySize=auto;html=1;entryX=0;entryY=0.5;entryDx=0;entryDy=0;" edge="1" parent="1" source="j2x3N7LSNfkqkWNasANX-1" target="j2x3N7LSNfkqkWNasANX-7">
          <mxGeometry relative="1" as="geometry" />
        </mxCell>
        <mxCell id="j2x3N7LSNfkqkWNasANX-1" value="PENJUAL" style="html=1;dashed=0;whiteSpace=wrap;shape=partialRectangle;right=0;left=0;" vertex="1" parent="1">
          <mxGeometry x="60" y="130" width="166.67" height="50" as="geometry" />
        </mxCell>
        <mxCell id="j2x3N7LSNfkqkWNasANX-9" style="edgeStyle=orthogonalEdgeStyle;rounded=0;orthogonalLoop=1;jettySize=auto;html=1;entryX=1;entryY=0.5;entryDx=0;entryDy=0;" edge="1" parent="1" source="j2x3N7LSNfkqkWNasANX-4" target="j2x3N7LSNfkqkWNasANX-7">
          <mxGeometry relative="1" as="geometry" />
        </mxCell>
        <mxCell id="j2x3N7LSNfkqkWNasANX-4" value="PEMBELI" style="html=1;dashed=0;whiteSpace=wrap;shape=partialRectangle;right=0;left=0;" vertex="1" parent="1">
          <mxGeometry x="570" y="140" width="166.67" height="50" as="geometry" />
        </mxCell>
        <mxCell id="j2x3N7LSNfkqkWNasANX-5" value="TRANSAKSI" style="html=1;dashed=0;whiteSpace=wrap;shape=partialRectangle;right=0;left=0;" vertex="1" parent="1">
          <mxGeometry x="50" y="510" width="166.67" height="50" as="geometry" />
        </mxCell>
        <mxCell id="j2x3N7LSNfkqkWNasANX-6" value="BARANG" style="html=1;dashed=0;whiteSpace=wrap;shape=partialRectangle;right=0;left=0;" vertex="1" parent="1">
          <mxGeometry x="580" y="510" width="166.67" height="50" as="geometry" />
        </mxCell>
        <mxCell id="j2x3N7LSNfkqkWNasANX-16" style="edgeStyle=orthogonalEdgeStyle;rounded=0;orthogonalLoop=1;jettySize=auto;html=1;exitX=0.75;exitY=1;exitDx=0;exitDy=0;entryX=0;entryY=0.5;entryDx=0;entryDy=0;" edge="1" parent="1" source="j2x3N7LSNfkqkWNasANX-7" target="j2x3N7LSNfkqkWNasANX-15">
          <mxGeometry relative="1" as="geometry" />
        </mxCell>
        <mxCell id="j2x3N7LSNfkqkWNasANX-23" style="edgeStyle=orthogonalEdgeStyle;rounded=0;orthogonalLoop=1;jettySize=auto;html=1;exitX=0.25;exitY=1;exitDx=0;exitDy=0;entryX=1;entryY=0.5;entryDx=0;entryDy=0;" edge="1" parent="1" source="j2x3N7LSNfkqkWNasANX-7" target="j2x3N7LSNfkqkWNasANX-18">
          <mxGeometry relative="1" as="geometry" />
        </mxCell>
        <mxCell id="j2x3N7LSNfkqkWNasANX-7" value="MENU" style="html=1;dashed=0;whiteSpace=wrap;" vertex="1" parent="1">
          <mxGeometry x="350" y="310" width="100" height="50" as="geometry" />
        </mxCell>
        <mxCell id="j2x3N7LSNfkqkWNasANX-13" style="edgeStyle=orthogonalEdgeStyle;rounded=0;orthogonalLoop=1;jettySize=auto;html=1;exitX=1;exitY=0.5;exitDx=0;exitDy=0;entryX=0;entryY=0.5;entryDx=0;entryDy=0;" edge="1" parent="1" source="j2x3N7LSNfkqkWNasANX-10" target="j2x3N7LSNfkqkWNasANX-6">
          <mxGeometry relative="1" as="geometry" />
        </mxCell>
        <mxCell id="j2x3N7LSNfkqkWNasANX-10" value="MEMBELI" style="shape=ellipse;html=1;dashed=0;whiteSpace=wrap;aspect=fixed;perimeter=ellipsePerimeter;" vertex="1" parent="1">
          <mxGeometry x="340" y="480" width="110" height="110" as="geometry" />
        </mxCell>
        <mxCell id="j2x3N7LSNfkqkWNasANX-17" style="edgeStyle=orthogonalEdgeStyle;rounded=0;orthogonalLoop=1;jettySize=auto;html=1;exitX=0;exitY=0.25;exitDx=0;exitDy=0;entryX=1;entryY=1;entryDx=0;entryDy=0;" edge="1" parent="1" source="j2x3N7LSNfkqkWNasANX-15" target="j2x3N7LSNfkqkWNasANX-7">
          <mxGeometry relative="1" as="geometry" />
        </mxCell>
        <mxCell id="j2x3N7LSNfkqkWNasANX-15" value="LOGIN" style="html=1;dashed=0;whiteSpace=wrap;" vertex="1" parent="1">
          <mxGeometry x="636.6700000000001" y="390" width="100" height="50" as="geometry" />
        </mxCell>
        <mxCell id="j2x3N7LSNfkqkWNasANX-19" style="edgeStyle=orthogonalEdgeStyle;rounded=0;orthogonalLoop=1;jettySize=auto;html=1;entryX=0;entryY=1;entryDx=0;entryDy=0;exitX=1;exitY=0.25;exitDx=0;exitDy=0;" edge="1" parent="1" source="j2x3N7LSNfkqkWNasANX-18" target="j2x3N7LSNfkqkWNasANX-7">
          <mxGeometry relative="1" as="geometry" />
        </mxCell>
        <mxCell id="j2x3N7LSNfkqkWNasANX-18" value="REGISTER" style="html=1;dashed=0;whiteSpace=wrap;" vertex="1" parent="1">
          <mxGeometry x="60.000000000000014" y="387" width="100" height="50" as="geometry" />
        </mxCell>
      </root>
    </mxGraphModel>
  </diagram>
</mxfile>
